<?xml version="1.0" encoding="UTF-8"?>
<!-- Generator: Adobe Illustrator 23.0.1, SVG Export Plug-In . SVG Version: 6.00 Build 0)  -->
<!DOCTYPE svg PUBLIC "-//W3C//DTD SVG 1.1//EN" "http://www.w3.org/Graphics/SVG/1.1/DTD/svg11.dtd" [
<!ENTITY ns_extend "http://ns.adobe.com/Extensibility/1.0/">
<!ENTITY ns_ai "http://ns.adobe.com/AdobeIllustrator/10.0/">
<!ENTITY ns_graphs "http://ns.adobe.com/Graphs/1.0/">
<!ENTITY ns_vars "http://ns.adobe.com/Variables/1.0/">
<!ENTITY ns_imrep "http://ns.adobe.com/ImageReplacement/1.0/">
<!ENTITY ns_sfw "http://ns.adobe.com/SaveForWeb/1.0/">
<!ENTITY ns_custom "http://ns.adobe.com/GenericCustomNamespace/1.0/">
<!ENTITY ns_adobe_xpath "http://ns.adobe.com/XPath/1.0/">
]>
<svg xmlns:x="&ns_extend;" xmlns:i="&ns_ai;" xmlns:graph="&ns_graphs;" xmlns="http://www.w3.org/2000/svg" xmlns:xlink="http://www.w3.org/1999/xlink" version="1.1" id="Icon_x5F_contour" x="0px" y="0px" viewBox="0 0 192 192" enable-background="new 0 0 192 192" xml:space="preserve">
<metadata>
	<sfw xmlns="&ns_sfw;">
		<slices/>
		<sliceSourceBounds bottomLeftOrigin="true" height="128" width="120" x="-161.6" y="-160"/>
		<optimizationSettings>
			<targetSettings fileFormat="PNG24Format" targetSettingsID="0">
				<PNG24Format filtered="false" interlaced="false" matteColor="#FFFFFF" noMatteColor="false" transparency="false">
					</PNG24Format>
			</targetSettings>
		</optimizationSettings>
	</sfw>
</metadata>
<path d="M109.3,101.4C122.6,96.1,132,83.2,132,68c0-19.9-16.1-36-36-36S60,48.1,60,68c0,15.2,9.4,28.1,22.7,33.4  C55.7,107.3,36,130.9,36,160h8c0-18.3,9-34.1,23-43.4l29,29l29-29c13.9,9.2,23,25.1,23,43.4h8C156,130.9,136.3,107.3,109.3,101.4z   M68,68c0-15.4,12.6-28,28-28s28,12.6,28,28s-12.6,28-28,28S68,83.4,68,68z M96,134.3l-21.7-21.7c6.6-3,13.9-4.6,21.7-4.6  s15.2,1.7,21.7,4.6L96,134.3z" style="fill: #000000;"/>
</svg>
