<?xml version="1.0" encoding="UTF-8"?>
<svg xmlns="http://www.w3.org/2000/svg" viewBox="0 0 192 192"><path d="M138.224 63.816l-9.398-42.984L58.487 36.21l9.398 42.985 70.34-15.379zm-15.504-33.46l5.98 27.354-54.708 11.96-5.98-27.353 54.708-11.96zM80.7 137.811l82.062-17.942-11.107-50.8L69.594 87.01l11.107 50.8zm72.538-24.048l-66.43 14.523-7.69-35.17 66.43-14.523 7.69 35.17zm19.382 23.936l-1.709-7.815-82.474 18.031c-3.099-6.97-10.056-11.866-18.165-11.908h-.106c-.093 0-.183.012-.275.014L46.734 30.104a15.897 15.897 0 0 0-6.995-10.052 15.895 15.895 0 0 0-12.053-2.162l-11.723 2.563 1.709 7.816 11.723-2.563a7.95 7.95 0 0 1 6.026 1.08 7.947 7.947 0 0 1 3.497 5.027l23.157 105.914a19.97 19.97 0 0 0-5.973 4.064 19.865 19.865 0 0 0-5.93 14.109 19.866 19.866 0 0 0 5.784 14.17 19.867 19.867 0 0 0 14.11 5.93h.104c10.978 0 19.938-8.902 19.995-19.893 0-.127-.015-.25-.017-.377l82.472-18.03zM70.17 168h-.063a11.919 11.919 0 0 1-8.465-3.558c-2.254-2.277-3.486-5.296-3.47-8.5s1.28-6.211 3.557-8.465a11.916 11.916 0 0 1 8.438-3.47h.064c6.614.034 11.968 5.443 11.934 12.059C82.131 162.66 76.755 168 70.169 168z" style="fill: #000000;"/></svg>
