<?xml version="1.0" encoding="utf-8"?>
<!-- Generator: Adobe Illustrator 24.0.1, SVG Export Plug-In . SVG Version: 6.00 Build 0)  -->
<svg version="1.1" id="Icon_x5F_contour" xmlns="http://www.w3.org/2000/svg" xmlns:xlink="http://www.w3.org/1999/xlink" x="0px"
	 y="0px" viewBox="0 0 192 192" style="enable-background:new 0 0 192 192;" xml:space="preserve">
<path d="M160,148h-12v12h-8v-12h-12v-8h12v-12h8v12h12V148z M176,144c0-17.64502-14.35498-32-32-32s-32,14.35498-32,32
	s14.35498,32,32,32S176,161.64502,176,144z M168,144c0,13.23389-10.76611,24-24,24s-24-10.76611-24-24s10.76611-24,24-24
	S168,130.76611,168,144z M120,72H56v8h64V72z M120,92H56v8h64V92z M56,120h40v-8H56V120z M152,50.49707v54.30786
	C149.41425,104.27795,146.73907,104,144,104V56h-28V24H48v144h64.02185c2.27844,3.02826,4.97559,5.72412,8.00592,8H40V16h81.81494
	L152,50.49707z M139.18494,48L124,30.64569V48H139.18494z"/>
<g>
</g>
<g>
</g>
<g>
</g>
<g>
</g>
<g>
</g>
<g>
</g>
<g>
</g>
<g>
</g>
<g>
</g>
<g>
</g>
<g>
</g>
<g>
</g>
<g>
</g>
<g>
</g>
<g>
</g>
</svg>
