<?xml version="1.0" encoding="UTF-8"?>
<svg xmlns="http://www.w3.org/2000/svg" viewBox="0 0 192 192"><path d="M172.485 155.515l-40.849-40.85A35.364 35.364 0 0 0 135 99.586C135 79.963 119.037 64 99.415 64S63.831 79.963 63.831 99.585s15.962 35.584 35.584 35.584a35.37 35.37 0 0 0 15.314-3.469l40.786 40.785c2.266 2.267 5.28 3.515 8.485 3.515s6.219-1.248 8.485-3.515c2.267-2.266 3.515-5.28 3.515-8.485s-1.248-6.219-3.515-8.485zM71.831 99.585C71.83 84.375 84.205 72 99.415 72 114.625 72 127 84.375 127 99.585s-12.375 27.584-27.585 27.584-27.584-12.374-27.584-27.584zm94.997 67.244c-1.51 1.51-4.145 1.51-5.656 0l-39.504-39.505a35.886 35.886 0 0 0 5.636-5.676l39.525 39.524c.755.755 1.171 1.76 1.171 2.828s-.416 2.073-1.172 2.829zM48 168V24h68v32h28v59.667l8 8v-73.17L121.815 16H40v160h107.686l-8-8H48zm76-137.354L139.185 48H124V30.646z" style="fill: #00884a;"/></svg>
