<?xml version="1.0" encoding="UTF-8"?>
<!-- Generator: Adobe Illustrator 25.2.2, SVG Export Plug-In . SVG Version: 6.00 Build 0)  -->
<svg xmlns="http://www.w3.org/2000/svg" xmlns:xlink="http://www.w3.org/1999/xlink" version="1.1" id="Icon_x5F_contour" x="0px" y="0px" viewBox="0 0 192 192" style="enable-background:new 0 0 192 192;" xml:space="preserve">
<path d="M136.00098,87.99902c-8.82227,0-16,7.17773-16,16s7.17773,16,16,16s16-7.17773,16-16S144.82324,87.99902,136.00098,87.99902  z M136.00098,111.99902c-4.41113,0-8-3.58887-8-8s3.58887-8,8-8s8,3.58887,8,8S140.41211,111.99902,136.00098,111.99902z   M175.31836,96.66309l-0.50195-2.70557l-9.02979-1.66455c-0.14258-0.36182-0.2915-0.7207-0.44727-1.07764l5.20898-7.56396  l-1.55713-2.26758c-2.80273-4.08203-6.29346-7.57275-10.37549-10.37549l-2.26758-1.55713l-7.56348,5.20947  c-0.35693-0.15576-0.71631-0.30518-1.07812-0.44775l-1.66406-9.02979l-2.70557-0.50195c-4.88281-0.90527-9.78955-0.90527-14.67236,0  l-2.70557,0.50195l-1.66406,9.02979c-0.36182,0.14258-0.72119,0.29199-1.07812,0.44775l-7.56348-5.20947l-2.26758,1.55713  c-4.08203,2.80273-7.57275,6.29346-10.37549,10.37549l-1.55713,2.26758l5.20898,7.56396  c-0.15576,0.35693-0.30469,0.71582-0.44727,1.07764l-9.02979,1.66455l-0.50195,2.70557  c-0.45264,2.44043-0.68213,4.90869-0.68213,7.33594s0.22949,4.89551,0.68213,7.33594l0.50195,2.70557l9.02979,1.66406  c0.14258,0.36182,0.2915,0.72119,0.44727,1.07764l-5.20898,7.56396l1.55713,2.26758  c2.80273,4.08203,6.29346,7.57275,10.37549,10.37549l2.26758,1.55713l7.56055-5.20703  c0.35889,0.15723,0.71924,0.30713,1.08203,0.44971l1.66309,9.02539l2.70557,0.50195  c2.44287,0.45312,4.91113,0.68262,7.33643,0.68262c2.4248,0,4.89307-0.22949,7.33594-0.68262l2.70557-0.50195l1.66406-9.02979  c0.36182-0.14258,0.72119-0.2915,1.07764-0.44727l7.56396,5.20898l2.26758-1.55713  c4.08203-2.80273,7.57275-6.29346,10.37549-10.37549l1.55713-2.26758l-5.20898-7.56396  c0.15576-0.35645,0.30469-0.71582,0.44727-1.07764l9.02979-1.66406l0.50195-2.70557  c0.45264-2.44238,0.68262-4.91064,0.68262-7.33594S175.771,99.10547,175.31836,96.66309z M167.8374,107.19189l-8.17285,1.50635  l-0.71045,2.32422c-0.44434,1.45557-1.03564,2.88037-1.75732,4.23584l-1.14258,2.146l4.71631,6.84863  c-1.35254,1.6543-2.86133,3.16309-4.51562,4.51562l-6.84863-4.71631l-2.146,1.14258  c-1.35547,0.72168-2.78027,1.31299-4.23584,1.75732l-2.32422,0.71045l-1.50635,8.17285c-2.14111,0.21777-4.24609,0.21777-6.38623,0  l-1.50732-8.1792l-2.33252-0.70654c-1.45312-0.43994-2.83545-1.01416-4.22656-1.75488l-2.146-1.14258l-6.84863,4.71631  c-1.6543-1.35254-3.16309-2.86133-4.51562-4.51562l4.71631-6.84863l-1.14258-2.146  c-0.72168-1.35547-1.31299-2.78027-1.75732-4.23584l-0.71045-2.32422l-8.17285-1.50635  c-0.1084-1.06982-0.16309-2.13721-0.16309-3.19287c0-1.05615,0.05469-2.12354,0.16309-3.19336l8.17285-1.50635l0.71045-2.32422  c0.44385-1.45459,1.03564-2.87988,1.75732-4.23633l1.14258-2.146l-4.71631-6.84814c1.35205-1.6543,2.86133-3.16309,4.51514-4.51562  l6.84961,4.71729l2.14648-1.14355c1.354-0.72168,2.77881-1.31299,4.23486-1.75732l2.32422-0.71045l1.50635-8.17285  c2.13916-0.2168,4.24609-0.2168,6.38623,0l1.50635,8.17285l2.32422,0.71045c1.45605,0.44434,2.88086,1.03564,4.23486,1.75732  l2.14648,1.14355l6.84961-4.71729c1.65381,1.35254,3.16309,2.86133,4.51514,4.51562l-4.71631,6.84814l1.14258,2.146  c0.72168,1.35645,1.31348,2.78174,1.75732,4.23633l0.71045,2.32422l8.17285,1.50684c0.10889,1.06982,0.16357,2.1377,0.16357,3.19287  S167.94629,106.12158,167.8374,107.19189z M52.00049,128c-6.6167,0-12,5.3833-12,12s5.3833,12,12,12s12-5.3833,12-12  S58.61719,128,52.00049,128z M52.00049,144c-2.20557,0-4-1.79443-4-4s1.79443-4,4-4s4,1.79443,4,4S54.20605,144,52.00049,144z   M86.88428,130.69287l-8.08545-1.49023c-0.06982-0.17285-0.14111-0.34473-0.21387-0.51562l4.66406-6.77295l-1.55713-2.26758  c-2.52148-3.67236-5.6626-6.81396-9.33691-9.33789l-2.26758-1.55762l-6.77295,4.66504  c-0.17139-0.07324-0.34326-0.14453-0.51562-0.21387l-1.49072-8.08545l-2.70508-0.50195c-4.39453-0.81641-8.81055-0.81641-13.20508,0  l-2.70508,0.50195l-1.49023,8.08545c-0.17236,0.06934-0.34424,0.14111-0.51562,0.21387l-6.77246-4.66455l-2.26758,1.55713  c-3.67383,2.52246-6.81543,5.66406-9.33789,9.33789l-1.55713,2.26758l4.66455,6.77246  c-0.07324,0.17139-0.14453,0.34326-0.21436,0.51611l-8.08496,1.49023l-0.50195,2.70508  c-0.4082,2.19678-0.61475,4.41797-0.61475,6.60205s0.20654,4.40527,0.61475,6.60254l0.50195,2.70508l8.08496,1.49023  c0.06982,0.17285,0.14111,0.34473,0.21436,0.51611l-4.66504,6.77295l1.55762,2.26758  c2.52393,3.67432,5.66553,6.81543,9.33789,9.33691l2.26758,1.55713l6.76953-4.66211c0.17285,0.07373,0.3457,0.14551,0.51953,0.21582  l1.48926,8.08154l2.70508,0.50195C47.59326,175.79346,49.81494,176,52.00049,176s4.40723-0.20654,6.60254-0.61426l2.70508-0.50195  l1.49023-8.08545c0.17285-0.06982,0.34473-0.14111,0.51562-0.21387l6.77295,4.66406l2.26758-1.55713  c3.67334-2.52246,6.81494-5.66406,9.3374-9.3374l1.55713-2.26758l-4.66406-6.77295c0.07275-0.1709,0.14404-0.34277,0.21387-0.51562  l8.08545-1.49023l0.50195-2.70508c0.40771-2.19531,0.61426-4.41699,0.61426-6.60254c0-2.18604-0.20654-4.40723-0.61426-6.60205  L86.88428,130.69287z M79.88916,142.4624l-7.2002,1.32715l-0.70996,2.32422c-0.38672,1.26562-0.90137,2.50586-1.52979,3.68652  l-1.14258,2.146l4.15527,6.0332c-1.05713,1.26172-2.22021,2.4248-3.48193,3.48193l-6.0332-4.15527l-2.146,1.14258  c-1.18066,0.62842-2.4209,1.14307-3.68652,1.52979l-2.32422,0.70996l-1.32715,7.2002c-1.64941,0.14844-3.2749,0.14844-4.92432,0  l-1.32812-7.20654l-2.33252-0.70654c-1.2627-0.38281-2.46533-0.88232-3.67725-1.52686l-2.146-1.14258l-6.0332,4.15527  c-1.26172-1.05664-2.4248-2.22021-3.48193-3.48193l4.15576-6.03369l-1.14355-2.14648  c-0.62793-1.17969-1.14307-2.41992-1.52979-3.68555l-0.70996-2.32422l-7.2002-1.32715  c-0.07422-0.8252-0.11133-1.64795-0.11133-2.4624s0.03711-1.63672,0.11133-2.46191l7.2002-1.32715l0.70996-2.32422  c0.38672-1.26562,0.90186-2.50586,1.52979-3.68555l1.14355-2.14648l-4.15576-6.03369  c1.05713-1.26221,2.21973-2.4248,3.48193-3.48193l6.03369,4.15576l2.14648-1.14355c1.17773-0.62695,2.41846-1.14209,3.68652-1.52979  l2.32324-0.71094l1.32715-7.19922c1.65039-0.14844,3.27393-0.14844,4.92432,0l1.32715,7.19922l2.32324,0.71094  c1.26807,0.3877,2.50879,0.90283,3.68652,1.52979l2.14648,1.14355l6.03369-4.15576c1.26172,1.05713,2.42529,2.22021,3.48193,3.48193  l-4.15527,6.0332l1.14258,2.146c0.62842,1.18066,1.14307,2.4209,1.52979,3.68652l0.70996,2.32422l7.20068,1.32715  c0.07373,0.82471,0.11084,1.64697,0.11084,2.46191S79.96338,141.6377,79.88916,142.4624z M59.99902,40c-8.82227,0-16,7.17773-16,16  s7.17773,16,16,16s16-7.17773,16-16S68.82129,40,59.99902,40z M59.99902,64c-4.41113,0-8-3.58887-8-8s3.58887-8,8-8s8,3.58887,8,8  S64.41016,64,59.99902,64z M89.78467,67.70605l9.02979-1.66455l0.50195-2.70557c0.45264-2.44238,0.68262-4.91064,0.68262-7.33594  s-0.22998-4.89355-0.68262-7.33594l-0.50195-2.70557l-9.02979-1.66455c-0.14258-0.36133-0.2915-0.7207-0.44727-1.07764  l5.20898-7.56348l-1.55713-2.26758c-2.80225-4.08203-6.29346-7.57275-10.37549-10.37598l-2.26758-1.55713l-7.56348,5.20947  c-0.35693-0.15576-0.71631-0.30518-1.07812-0.44775l-1.66406-9.02832l-2.70459-0.50244c-4.87988-0.90625-9.79395-0.90625-14.67383,0  l-2.70459,0.50195l-1.66455,9.02881c-0.36182,0.14258-0.72119,0.29199-1.07812,0.44775l-7.56348-5.20947l-2.26758,1.55713  c-4.08203,2.80322-7.57324,6.29395-10.37549,10.37598l-1.55713,2.26758l5.20947,7.56348  c-0.15576,0.35645-0.30518,0.71582-0.44775,1.07764l-9.02979,1.66455l-0.50195,2.70557  C20.22852,51.10449,19.99902,53.57275,19.99902,56s0.22949,4.89551,0.68213,7.33594l0.50195,2.70557l9.02979,1.66455  c0.14258,0.36182,0.29199,0.72119,0.44775,1.07764l-5.20947,7.56348l1.55713,2.26758  c2.80322,4.08252,6.29395,7.57324,10.37549,10.37598l2.26758,1.55713l7.56104-5.20752  c0.35889,0.15723,0.71924,0.30713,1.08154,0.44971l1.66357,9.0249l2.70459,0.50195C55.10205,95.77002,57.5708,96,59.99902,96  s4.89697-0.22998,7.33691-0.68311l2.70459-0.50244l1.66406-9.02832c0.36182-0.14258,0.72119-0.29199,1.07764-0.44775  l7.56396,5.20947l2.26758-1.55713c4.08105-2.80225,7.57178-6.29297,10.37598-10.37549l1.55762-2.26807l-5.20996-7.56348  C89.49316,68.42676,89.64209,68.06738,89.78467,67.70605z M84.76904,76.25439c-1.35303,1.65381-2.8623,3.16309-4.51562,4.51562  l-6.84863-4.7168L71.2583,77.1958c-1.35693,0.72266-2.78174,1.31396-4.23584,1.75781l-2.32422,0.71045l-1.50635,8.17285  c-2.13867,0.2168-4.24707,0.21729-6.38574-0.00049l-1.50781-8.17822l-2.33154-0.70703  c-1.45264-0.44043-2.83594-1.01465-4.22803-1.75537l-2.146-1.14258l-6.84863,4.7168  c-1.65332-1.35254-3.1626-2.86182-4.51514-4.51562l4.71729-6.84863l-1.14307-2.14648  c-0.72217-1.35547-1.31348-2.78027-1.75781-4.23535l-0.71045-2.32422l-8.17285-1.50635  c-0.1084-1.06982-0.16309-2.13721-0.16309-3.19336s0.05469-2.12354,0.16309-3.19336l8.17285-1.50635l0.71045-2.32422  c0.44434-1.45508,1.03564-2.87988,1.75781-4.23535l1.14307-2.14648L35.229,35.74561  c1.35205-1.65381,2.86182-3.16357,4.51514-4.51562l6.84912,4.71729l2.14648-1.14307  c1.35547-0.72217,2.78027-1.31348,4.23535-1.75781l2.32422-0.71045l1.50684-8.17236  c2.13867-0.21777,4.24707-0.21729,6.38574-0.00049l1.50635,8.17285l2.32422,0.71045  c1.45605,0.44434,2.88086,1.03564,4.23486,1.75732l2.14648,1.14355l6.84961-4.71729  c1.65381,1.35254,3.16309,2.86182,4.51514,4.51562l-4.71631,6.84814l1.14258,2.146c0.72168,1.35645,1.31348,2.78174,1.75732,4.23633  l0.71045,2.32422l8.17285,1.50684c0.10889,1.06982,0.16357,2.1377,0.16357,3.19287s-0.05469,2.12305-0.16357,3.19287  l-8.17285,1.50684l-0.71045,2.32422c-0.44385,1.45459-1.03564,2.87988-1.75732,4.23633l-1.14258,2.146L84.76904,76.25439z" style="fill: #ed0007;"/>
<g>
</g>
<g>
</g>
<g>
</g>
<g>
</g>
<g>
</g>
<g>
</g>
<g>
</g>
<g>
</g>
<g>
</g>
<g>
</g>
<g>
</g>
<g>
</g>
<g>
</g>
<g>
</g>
<g>
</g>
</svg>
