<?xml version="1.0" encoding="UTF-8"?>
<!-- Generator: Adobe Illustrator 24.0.1, SVG Export Plug-In . SVG Version: 6.00 Build 0)  -->
<svg xmlns="http://www.w3.org/2000/svg" xmlns:xlink="http://www.w3.org/1999/xlink" version="1.1" id="Icon_x5F_contour" x="0px" y="0px" viewBox="0 0 192 192" style="enable-background:new 0 0 192 192;" xml:space="preserve">
<path d="M95.99951,128.49951c-17.92041,0-32.5-14.57959-32.5-32.5s14.57959-32.5,32.5-32.5s32.5,14.57959,32.5,32.5  S113.91992,128.49951,95.99951,128.49951z M95.99951,71.49951c-13.50928,0-24.5,10.99072-24.5,24.5s10.99072,24.5,24.5,24.5  s24.5-10.99072,24.5-24.5S109.50879,71.49951,95.99951,71.49951z M95.99951,175.99951c-4.19043,0-8.43848-0.33691-12.62598-1.00098  l-2.58154-0.40967l-4.6416-17.73242c-3.13477-1.02393-6.1958-2.29492-9.14258-3.7959l-15.81396,9.25293l-2.11426-1.53369  c-6.86768-4.98291-12.87646-10.9917-17.85938-17.85938l-1.53467-2.11523l9.25635-15.80811  c-1.50928-2.96143-2.78564-6.03857-3.8125-9.18994l-17.71826-4.59277l-0.41064-2.58789  c-0.66406-4.18848-1.00098-8.43652-1.00098-12.62695s0.33691-8.43848,1.00098-12.62598l0.40967-2.58203l17.73145-4.63818  c1.02441-3.13721,2.29639-6.2002,3.79883-9.14893l-9.25488-15.81055l1.53418-2.11475  c4.98291-6.86768,10.9917-12.87646,17.85938-17.85938l2.11523-1.53418l15.80908,9.25537  c2.96045-1.50879,6.03711-2.78516,9.18945-3.81201l4.59277-17.71777l2.58789-0.41064c8.375-1.32812,16.87598-1.32812,25.25293,0  l2.58154,0.40967l4.6416,17.73291c3.13477,1.02344,6.1958,2.29443,9.14307,3.79639l15.81299-9.25293l2.11475,1.53369  c6.8667,4.98193,12.87549,10.99072,17.85938,17.85938l1.53467,2.11523l-9.25635,15.80811  c1.50928,2.96191,2.78516,6.03857,3.81201,9.18994l17.71777,4.59277l0.41064,2.58789  c0.66406,4.1875,1.00098,8.43555,1.00098,12.62598s-0.33691,8.43848-1.00098,12.62695l-0.40967,2.58203l-17.73145,4.63721  c-1.02441,3.13721-2.29639,6.20068-3.79883,9.14941l9.25488,15.80957l-1.53418,2.11523  c-4.98291,6.86768-10.9917,12.87646-17.85938,17.85938l-2.11523,1.53418l-15.80859-9.25537  c-2.96143,1.50879-6.03809,2.78516-9.18945,3.81201l-4.5918,17.71777l-2.58838,0.41064  C104.43799,175.6626,100.18994,175.99951,95.99951,175.99951z M87.19531,167.45801  c5.86719,0.71973,11.73535,0.71875,17.60254,0.00098l4.3999-16.97705l2.19971-0.62842  c4.07471-1.16406,8.02686-2.80322,11.74756-4.87207l1.99512-1.10889l15.15332,8.87158  c4.646-3.63086,8.81982-7.80469,12.45068-12.45117l-8.87109-15.15332l1.10889-1.99463  c2.06152-3.7085,3.69678-7.64746,4.86035-11.70703l0.62793-2.19092l16.98779-4.44287c0.35986-2.93506,0.5415-5.88623,0.5415-8.80469  c0-2.9165-0.18164-5.86523-0.54053-8.79736l-16.97656-4.40039l-0.62842-2.19922c-1.16406-4.07471-2.80371-8.02734-4.87256-11.74951  l-1.10889-1.99463l8.87158-15.15234c-3.63135-4.64697-7.80469-8.82031-12.45068-12.45068l-15.15771,8.86914l-1.99463-1.10889  c-3.70654-2.06055-7.64258-3.69482-11.69873-4.85742l-2.19043-0.62793l-4.44727-16.98926  c-5.86768-0.71924-11.73584-0.71924-17.60254-0.00098L82.80176,41.5166l-2.19922,0.62842  c-4.07617,1.16455-8.02881,2.8042-11.74805,4.87207l-1.99463,1.10986l-15.15381-8.87158  c-4.64648,3.63037-8.82031,7.80469-12.45117,12.45068l8.87109,15.15479l-1.10889,1.99463  c-2.06152,3.70752-3.69678,7.646-4.86035,11.70557l-0.62793,2.19092L24.54102,87.1958  c-0.35986,2.93457-0.5415,5.88525-0.5415,8.80371c0,2.9165,0.18164,5.86572,0.54053,8.79834l16.97705,4.40039l0.62842,2.19922  c1.16406,4.0752,2.80371,8.02783,4.87305,11.74902l1.10938,1.99512l-8.87207,15.15234  c3.63086,4.64648,7.8042,8.81982,12.45117,12.45068l15.15723-8.86865l1.99414,1.1084  c3.70654,2.06006,7.64258,3.69385,11.69971,4.85693l2.18994,0.62793L87.19531,167.45801z" style="fill: #000000;"/>
<g>
</g>
<g>
</g>
<g>
</g>
<g>
</g>
<g>
</g>
<g>
</g>
<g>
</g>
<g>
</g>
<g>
</g>
<g>
</g>
<g>
</g>
<g>
</g>
<g>
</g>
<g>
</g>
<g>
</g>
</svg>
